# xmcd
#
# Track frame offsets:
#	150
#	15022
#	32429
#	44030
#	57387
#	69552
#	85002
#	97613
#	112081
#	127221
#	138258
#	154401
#	165469
#	185997
#	206344
#	219739
#	235656
#	251569
#	271999
#	284210
#	298190
#	312205
#	335377
#
# Disc length: 4707 seconds
#
# Revision: 1
# Processed by: cddbd v1.5.1PL2 Copyright (c) Steve Scherf et al.
# Submitted via: EasyCDDAExtractor 6.2.0.3
#
DISCID=59126117
DTITLE=Various Artist - Fuck Nashville Volume 2
DYEAR=2005
DGENRE=Country
TTITLE0=Willie Nelson and Waylon Jennings - Write Your Own Songs
TTITLE1=Tom Petty - The Last DJ
TTITLE2=J.B. Beverley and The Wayward Drifters - Dark Bar And A Jukebox
TTITLE3=Doug Sahm - Oh No, Not Another One
TTITLE4=The Rounders - That Ole Jukebox
TTITLE5=Audrey Auld - The Next Big Nothing
TTITLE6=Jason And The Scorchers - Greetings From Nashville
TTITLE7=Country Porn - No Sellout Too Small
TTITLE8=Dallas Wayne - If That's Country
TTITLE9=Dwight Yoakam - The Late Great Golden State
TTITLE10=Brad Paisley, George Jones, Bill Anderson, and Buck Owens - Too Country
TTITLE11=Hank Williams Jr. - Tennessee
TTITLE12=Joey Allcorn - This Ain't Montgomery
TTITLE13=Kinky Friedman - Nashville Casualty And Life
TTITLE14=Waylon Jennings - Rough On The Living
TTITLE15=Dale Watson - A Real Country Song
TTITLE16=Zane Campbell - From The South
TTITLE17=Asylum Street Spankers - Starting To Hate Country Music
TTITLE18=Th' Legendary Shack Shakers - That's What I Know
TTITLE19=The Skeeters - Country Pop
TTITLE20=The Waco Brothers - The Death Of Country Music
TTITLE21=Tommy Alverson - Purty Boys
TTITLE22=Aaron Watson - Something With A Swing To It
EXTD=
EXTT0=
EXTT1=
EXTT2=
EXTT3=
EXTT4=
EXTT5=
EXTT6=
EXTT7=
EXTT8=
EXTT9=
EXTT10=
EXTT11=
EXTT12=
EXTT13=
EXTT14=
EXTT15=
EXTT16=
EXTT17=
EXTT18=
EXTT19=
EXTT20=
EXTT21=
EXTT22=
PLAYORDER=
